# xmcd
#
# Track frame offsets:
#	150
#	12633
#	23996
#	35123
#	47780
#	59735
#	70694
#	80914
#	92692
#	104020
#	115711
#	126396
#	135738
#	147396
#	159226
#	169493
#	180272
#	189203
#	200361
#	210819
#
# Disc length: 2930 seconds
#
# Revision: 1
# Processed by: cddbd v1.5.2PL0 Copyright (c) Steve Scherf et al.
# Submitted via: audiograbber 1.83.01
#
DISCID=230b7014
DTITLE=Chet Atkins - The Best of Young Chet
DYEAR=2009
DGENRE=Instrumental
TTITLE0=Guitar Blues
TTITLE1=Canned Heat
TTITLE2=The Nashville Jump
TTITLE3=Barnyard Shuffle
TTITLE4=Dizzy Strings
TTITLE5=Galloping On The Guitar
TTITLE6=Main Street Breakdown
TTITLE7=Indian Love Call
TTITLE8=Birth Of The Blues
TTITLE9=Jitterbug Waltz
TTITLE10=Crazy Rhythm
TTITLE11=Rustic Dance
TTITLE12=Rainbow
TTITLE13=Spanish Fandango
TTITLE14=Blue Gypsy
TTITLE15=Theme from "The Third Man"
TTITLE16=Chinatown, My Chinatown
TTITLE17=Pig Leaf Rag
TTITLE18=Peeping Tom
TTITLE19=Kentucky Derby
EXTD=
EXTT0=
EXTT1=
EXTT2=
EXTT3=
EXTT4=
EXTT5=
EXTT6=
EXTT7=
EXTT8=
EXTT9=
EXTT10=
EXTT11=
EXTT12=
EXTT13=
EXTT14=
EXTT15=
EXTT16=
EXTT17=
EXTT18=
EXTT19=
PLAYORDER=
